<svg xmlns="http://www.w3.org/2000/svg" viewBox="0 0 512 512" fill="none">
  <!-- House Only with Perspective -->
  <path d="M150,300 L350,300 L350,450 L150,450 Z" fill="#4CAF50" />
  <path d="M350,300 L450,230 L450,380 L350,450 Z" fill="#388E3C" />
  <path d="M150,300 L250,180 L350,300 Z" fill="#4CAF50" />
  <path d="M250,180 L350,110 L450,230 L350,300 Z" fill="#1E88E5" />
  <g stroke="white" stroke-width="2" stroke-opacity="0.4">
    <line x1="280" y1="165" x2="380" y2="150" />
    <line x1="315" y1="145" x2="415" y2="130" />
    <line x1="280" y1="165" x2="330" y2="240" />
    <line x1="325" y1="135" x2="375" y2="210" />
    <line x1="370" y1="105" x2="420" y2="180" />
  </g>
  <rect x="225" y="330" width="50" height="50" fill="white" fill-opacity="0.9" rx="3" />
  <line x1="250" y1="330" x2="250" y2="380" stroke="#4CAF50" stroke-width="3" />
  <line x1="225" y1="355" x2="275" y2="355" stroke="#4CAF50" stroke-width="3" />
</svg>
